<svg width="853" height="277" viewBox="0 0 853 277" fill="none" xmlns="http://www.w3.org/2000/svg">
<path d="M145.53 11C148.886 11 151.327 11.9951 152.853 13.9854L183.2 51.25V271.325C183.2 274.642 184.867 276.301 188.2 276.301H120.131C116.317 276.301 114.41 274.642 114.41 271.325V196.69H95.1895V271.325C95.1893 274.642 93.2823 276.301 89.4688 276.301H5.7207C1.90717 276.301 0.000146093 274.642 0 271.325V86.8281C0.000102612 84.7053 0.762716 82.7149 2.28809 80.8574L56.29 13.9854C57.9681 11.9951 60.4088 11 63.6123 11H145.53ZM315.2 11C318.267 11 320.934 12.0617 323.2 14.1846L363.2 53.9893C365.333 56.2448 366.4 58.8986 366.4 61.9502V103.746C366.4 105.073 366.133 106.134 365.6 106.93C365.066 107.726 364.267 108.655 363.2 109.717L331.8 137.58L328.4 142.954L331.8 150.317L363.2 178.181C364.267 179.242 365.066 180.172 365.6 180.968C366.133 181.631 366.4 182.692 366.4 184.151V225.151C366.4 228.336 365.333 230.989 363.2 233.112L323.2 272.917C320.934 275.173 318.267 276.301 315.2 276.301H203.88C207.693 276.301 209.599 274.642 209.6 271.325V86.8281C209.6 84.7053 208.837 82.7149 207.312 80.8574L183.2 51.25V15.9756C183.2 12.6585 184.867 11 188.2 11H315.2ZM274.8 173.803C269.467 173.803 265.066 175.528 261.6 178.978C258.133 182.295 256.4 186.673 256.4 192.113C256.4 197.42 258.133 201.798 261.6 205.248C265.066 208.565 269.467 210.224 274.8 210.224C280.133 210.224 284.533 208.565 288 205.248C291.466 201.798 293.2 197.42 293.2 192.113C293.2 186.673 291.467 182.295 288 178.978C284.533 175.528 280.133 173.803 274.8 173.803ZM104.8 89.2168C98.2404 89.2168 92.901 91.0084 88.7822 94.5908C84.6637 98.1732 82.6045 102.817 82.6045 108.522C82.6045 114.095 84.6637 118.673 88.7822 122.255C92.901 125.837 98.2404 127.629 104.8 127.629C111.359 127.629 116.699 125.837 120.817 122.255C124.936 118.672 126.996 114.095 126.996 108.522C126.996 102.817 124.936 98.1733 120.817 94.5908C116.699 91.0084 111.359 89.2168 104.8 89.2168ZM273.8 77.8721C268.867 77.8721 264.734 79.5309 261.4 82.8477C258.067 86.032 256.4 90.1456 256.4 95.1875C256.4 100.097 258.067 104.21 261.4 107.527C264.734 110.844 268.867 112.503 273.8 112.503C278.866 112.503 283 110.844 286.2 107.527C289.534 104.21 291.2 100.097 291.2 95.1875C291.2 90.1456 289.534 86.032 286.2 82.8477C283 79.5307 278.866 77.8721 273.8 77.8721Z" fill="white"/>
<path d="M729.931 264.931H803.23L667.548 30.3297V276.301H656.178V11.0007H669.443L811.189 256.214V11.0007H822.559V276.301H729.931V264.931Z" fill="white"/>
<path d="M809.041 276.3L667.976 30.329V276.3H656.606V11H669.871L811.617 256.213V11H822.987V276.3H809.041Z" fill="white"/>
<path d="M604.478 276.3H593.108V11H604.478V276.3Z" fill="white"/>
<path d="M543.533 137.586H430.97L546.944 22.37H418.842V276.3H407.472V11H574.611L458.637 126.216H543.533V137.586Z" fill="white"/>
<path d="M789.016 44.6658L780.531 36.1805L816.711 0L825.197 8.48528L789.016 44.6658Z" fill="white"/>
<path d="M844.406 44.6658L852.892 36.1805L816.711 0L808.226 8.48528L844.406 44.6658Z" fill="white"/>
</svg>
