<svg width="854" height="278" viewBox="0 0 854 278" fill="none" xmlns="http://www.w3.org/2000/svg">
<path d="M146.084 11.8496C149.44 11.8496 151.881 12.8447 153.407 14.835L183.754 52.0996V272.175C183.755 275.492 185.421 277.15 188.754 277.15H120.685C116.872 277.15 114.965 275.492 114.964 272.175V197.54H95.7437V272.175C95.7435 275.492 93.8365 277.15 90.0229 277.15H6.2749C2.46137 277.15 0.554345 275.492 0.554199 272.175V87.6777C0.554302 85.555 1.31692 83.5645 2.84229 81.707L56.8442 14.835C58.5223 12.8447 60.963 11.8496 64.1665 11.8496H146.084ZM315.754 11.8496C318.821 11.8496 321.488 12.9113 323.754 15.0342L363.754 54.8389C365.888 57.0944 366.955 59.7482 366.955 62.7998V104.596C366.955 105.922 366.687 106.983 366.154 107.779C365.62 108.575 364.821 109.505 363.754 110.566L332.354 138.43L328.955 143.804L332.354 151.167L363.754 179.03C364.821 180.092 365.62 181.021 366.154 181.817C366.687 182.481 366.955 183.542 366.955 185.001V226.001C366.955 229.185 365.888 231.839 363.754 233.962L323.754 273.767C321.488 276.022 318.821 277.15 315.754 277.15H204.434C208.247 277.15 210.154 275.492 210.154 272.175V87.6777C210.154 85.555 209.391 83.5645 207.866 81.707L183.754 52.0996V16.8252C183.754 13.5081 185.421 11.8496 188.754 11.8496H315.754ZM275.354 174.652C270.021 174.652 265.62 176.377 262.154 179.827C258.687 183.144 256.955 187.523 256.955 192.963C256.955 198.27 258.688 202.648 262.154 206.098C265.62 209.415 270.021 211.073 275.354 211.073C280.687 211.073 285.088 209.415 288.554 206.098C292.021 202.648 293.754 198.27 293.754 192.963C293.754 187.523 292.021 183.144 288.554 179.827C285.088 176.377 280.687 174.652 275.354 174.652ZM105.354 90.0664C98.7946 90.0664 93.4552 91.858 89.3364 95.4404C85.2179 99.0228 83.1587 103.667 83.1587 109.372C83.1587 114.945 85.2179 119.522 89.3364 123.104C93.4552 126.687 98.7946 128.478 105.354 128.479C111.914 128.479 117.253 126.687 121.372 123.104C125.49 119.522 127.55 114.945 127.55 109.372C127.55 103.667 125.49 99.0229 121.372 95.4404C117.253 91.858 111.914 90.0664 105.354 90.0664ZM274.354 78.7217C269.421 78.7217 265.288 80.3805 261.955 83.6973C258.621 86.8816 256.955 90.9952 256.955 96.0371C256.955 100.946 258.621 105.06 261.955 108.377C265.288 111.694 269.421 113.352 274.354 113.353C279.421 113.353 283.554 111.694 286.754 108.377C290.088 105.06 291.754 100.946 291.754 96.0371C291.754 90.9952 290.088 86.8816 286.754 83.6973C283.554 80.3803 279.421 78.7217 274.354 78.7217Z" fill="black"/>
<path d="M809.596 277.15L668.102 31.1793V277.15H656.732V11.8503H669.997L811.743 257.063V11.8503H823.113V277.15L809.596 277.15Z" fill="black"/>
<path d="M809.596 277.15L668.53 31.1786V277.15H657.16V11.8496H670.425L812.171 257.063V11.8496H823.541V277.15H809.596Z" fill="black"/>
<path d="M605.033 277.15H593.663V11.8496H605.033V277.15Z" fill="black"/>
<path d="M544.088 138.436H431.525L547.499 23.2196H419.397V277.15H408.027V11.8496H575.166L459.192 127.066H544.088V138.436Z" fill="black"/>
<path d="M789.57 45.5154L781.085 37.0301L817.265 0.849609L825.751 9.33489L789.57 45.5154Z" fill="black"/>
<path d="M844.961 45.5154L853.446 37.0301L817.265 0.849609L808.78 9.33489L844.961 45.5154Z" fill="black"/>
</svg>
